<?xml version="1.0" encoding="UTF-8"?>
<svg id="Layer_1" xmlns="http://www.w3.org/2000/svg" version="1.1" xmlns:xlink="http://www.w3.org/1999/xlink" viewBox="0 0 1227.33 333.33">
  <!-- Generator: Adobe Illustrator 30.1.0, SVG Export Plug-In . SVG Version: 2.1.1 Build 136)  -->
  <defs>
    <style>
      .st0 {
        fill: #08d1dc;
      }

      .st1 {
        fill: #6283e9;
      }

      .st2 {
        fill: #8f5cf0;
      }

      .st3 {
        fill: #8962ef;
      }

      .st4 {
        fill: #1ebedf;
      }

      .st5 {
        fill: #6f77eb;
      }

      .st6 {
        fill: #38a7e3;
      }

      .st7 {
        fill: #c92af8;
      }

      .st8 {
        fill: #5d87e9;
      }

      .st9 {
        fill: #0dcddd;
      }

      .st10 {
        fill: #5e86e9;
      }

      .st11 {
        fill: #01d7db;
      }

      .st12 {
        fill: #588be8;
      }

      .st13 {
        fill: #3ca4e4;
      }

      .st14 {
        fill: #6d79eb;
      }

      .st15 {
        fill: #c42ef7;
      }

      .st16 {
        fill: #be33f6;
      }

      .st17 {
        fill: #b839f6;
      }

      .st18 {
        fill: #9d50f2;
      }

      .st19 {
        fill: #9f4ef2;
      }

      .st20 {
        fill: #598ae8;
      }

      .st21 {
        fill: #9c51f2;
      }

      .st22 {
        fill: #2db1e2;
      }

      .st23 {
        fill: #cb28f8;
      }

      .st24 {
        fill: #32ace2;
      }

      .st25 {
        fill: #8268ee;
      }

      .st26 {
        fill: #548fe7;
      }

      .st27 {
        fill: #c62cf8;
      }

      .st28 {
        fill: #06d3dc;
      }

      .st29 {
        fill: #8c5fef;
      }

      .st30 {
        fill: #9954f1;
      }

      .st31 {
        fill: #ae41f4;
      }

      .st32 {
        fill: #4a98e6;
      }

      .st33 {
        fill: #3ea2e4;
      }

      .st34 {
        fill: #b13ff5;
      }

      .st35 {
        fill: #1dbfdf;
      }

      .st36 {
        fill: #cf25f9;
      }

      .st37 {
        fill: #29b4e1;
      }

      .st38 {
        fill: #4e94e6;
      }

      .st39 {
        fill: #915bf0;
      }

      .st40 {
        fill: #5390e7;
      }

      .st41 {
        fill: #8862ef;
      }

      .st42 {
        fill: #28b5e1;
      }

      .st43 {
        fill: #a14df2;
      }

      .st44 {
        fill: #a648f3;
      }

      .st45 {
        fill: #9557f0;
      }

      .st46 {
        fill: #8367ee;
      }

      .st47 {
        fill: #459ce5;
      }

      .st48 {
        fill: #8e5def;
      }

      .st49 {
        fill: #796fed;
      }

      .st50 {
        fill: #8763ee;
      }

      .st51 {
        fill: #479ae5;
      }

      .st52 {
        fill: #bd34f6;
      }

      .st53 {
        fill: #a847f3;
      }

      .st54 {
        fill: #9e4ff2;
      }

      .st55 {
        fill: #1cc0df;
      }

      .st56 {
        fill: #9359f0;
      }

      .st57 {
        fill: #7b6ded;
      }

      .st58 {
        fill: #0bcedd;
      }

      .st59 {
        fill: #26b7e1;
      }

      .st60 {
        fill: #b23ef5;
      }

      .st61 {
        fill: #4998e6;
      }

      .st62 {
        fill: #1ac1df;
      }

      .st63 {
        fill: #3aa5e3;
      }

      .st64 {
        fill: #a04ef2;
      }

      .st65 {
        fill: #4c96e6;
      }

      .st66 {
        fill: #b53bf5;
      }

      .st67 {
        fill: #419fe4;
      }

      .st68 {
        fill: none;
      }

      .st69 {
        fill: #24b9e0;
      }

      .st70 {
        fill: #8b60ef;
      }

      .st71 {
        fill: #16c5de;
      }

      .st72 {
        fill: #ce25f9;
      }

      .st73 {
        fill: #0fcbdd;
      }

      .st74 {
        fill: #12c8de;
      }

      .st75 {
        fill: #c72cf8;
      }

      .st76 {
        fill: #22bae0;
      }

      .st77 {
        fill: #13c7de;
      }

      .st78 {
        fill: #07d2dc;
      }

      .st79 {
        fill: #9458f0;
      }

      .st80 {
        fill: #4d95e6;
      }

      .st81 {
        fill: #5a8ae8;
      }

      .st82 {
        fill: #18c3de;
      }

      .st83 {
        fill: #bb36f6;
      }

      .st84 {
        fill: #d123f9;
      }

      .st85 {
        clip-path: url(#clippath-1);
      }

      .st86 {
        fill: #14c7de;
      }

      .st87 {
        fill: #7176eb;
      }

      .st88 {
        fill: #30aee2;
      }

      .st89 {
        fill: #3da3e4;
      }

      .st90 {
        fill: #2ab3e1;
      }

      .st91 {
        fill: #20bce0;
      }

      .st92 {
        fill: #8a61ef;
      }

      .st93 {
        fill: #15c6de;
      }

      .st94 {
        fill: #9854f1;
      }

      .st95 {
        fill: #af40f4;
      }

      .st96 {
        fill: #8d5eef;
      }

      .st97 {
        fill: #8961ef;
      }

      .st98 {
        fill: #687dea;
      }

      .st99 {
        fill: #a24cf2;
      }

      .st100 {
        fill: #6084e9;
      }

      .st101 {
        fill: #677eea;
      }

      .st102 {
        fill: #c230f7;
      }

      .st103 {
        fill: #0acfdc;
      }

      .st104 {
        fill: #2bb3e1;
      }

      .st105 {
        fill: #ca29f8;
      }

      .st106 {
        fill: #786fec;
      }

      .st107 {
        fill: #6580ea;
      }

      .st108 {
        fill: #b43cf5;
      }

      .st109 {
        fill: #558ee7;
      }

      .st110 {
        fill: #21bbe0;
      }

      .st111 {
        fill: #7d6ced;
      }

      .st112 {
        fill: #c82bf8;
      }

      .st113 {
        fill: #4899e5;
      }

      .st114 {
        fill: #35aae3;
      }

      .st115 {
        fill: #36a9e3;
      }

      .st116 {
        fill: #8565ee;
      }

      .st117 {
        fill: #02d6db;
      }

      .st118 {
        fill: #7f6aed;
      }

      .st119 {
        fill: #6a7cea;
      }

      .st120 {
        fill: #9b52f1;
      }

      .st121 {
        fill: #09d0dc;
      }

      .st122 {
        fill: #37a8e3;
      }

      .st123 {
        fill: #5b89e8;
      }

      .st124 {
        fill: #c032f7;
      }

      .st125 {
        fill: #925af0;
      }

      .st126 {
        fill: #7275ec;
      }

      .st127 {
        fill: #31ade2;
      }

      .st128 {
        fill: #aa45f4;
      }

      .st129 {
        fill: #568de7;
      }

      .st130 {
        fill: #33ace2;
      }

      .st131 {
        fill: #03d5db;
      }

      .st132 {
        fill: #8466ee;
      }

      .st133 {
        fill: #a44af3;
      }

      .st134 {
        fill: #34abe3;
      }

      .st135 {
        fill: #b040f4;
      }

      .st136 {
        fill: #bf33f7;
      }

      .st137 {
        fill: #2eb0e2;
      }

      .st138 {
        fill: #3fa1e4;
      }

      .st139 {
        fill: #905bf0;
      }

      .st140 {
        fill: #cd26f9;
      }

      .st141 {
        fill: #9755f1;
      }

      .st142 {
        fill: #4b97e6;
      }

      .st143 {
        fill: #11c9dd;
      }

      .st144 {
        fill: #697dea;
      }

      .st145 {
        fill: #7770ec;
      }

      .st146 {
        fill: #5c88e8;
      }

      .st147 {
        fill: #7473ec;
      }

      .st148 {
        fill: #b63af5;
      }

      .st149 {
        fill: #b33df5;
      }

      .st150 {
        fill: #cc27f8;
      }

      .st151 {
        fill: #bc35f6;
      }

      .st152 {
        fill: #0ccedd;
      }

      .st153 {
        fill: #00d8db;
      }

      .st154 {
        fill: #429fe5;
      }

      .st155 {
        fill: #6481ea;
      }

      .st156 {
        fill: #10cadd;
      }

      .st157 {
        fill: #2fafe2;
      }

      .st158 {
        fill: #7a6eed;
      }

      .st159 {
        fill: #d024f9;
      }

      .st160 {
        fill: #17c4de;
      }

      .st161 {
        fill: #b739f5;
      }

      .st162 {
        fill: #a747f3;
      }

      .st163 {
        fill: #23bae0;
      }

      .st164 {
        fill: #ba37f6;
      }

      .st165 {
        fill: #449de5;
      }

      .st166 {
        fill: #a549f3;
      }

      .st167 {
        fill: #ab44f4;
      }

      .st168 {
        fill: #7572ec;
      }

      .st169 {
        fill: #2cb2e1;
      }

      .st170 {
        fill: #c131f7;
      }

      .st171 {
        fill: #19c2df;
      }

      .st172 {
        fill: #5291e7;
      }

      .st173 {
        fill: #a946f3;
      }

      .st174 {
        fill: #7e6bed;
      }

      .st175 {
        fill: #578ce8;
      }

      .st176 {
        fill: #6c7aeb;
      }

      .st177 {
        fill: #7076eb;
      }

      .st178 {
        fill: #1fbde0;
      }

      .st179 {
        fill: #27b6e1;
      }

      .st180 {
        fill: #439ee5;
      }

      .st181 {
        fill: #40a0e4;
      }

      .st182 {
        fill: #6382e9;
      }

      .st183 {
        fill: #5191e7;
      }

      .st184 {
        fill: #453c4c;
      }

      .st185 {
        fill: #25b8e0;
      }

      .st186 {
        fill: #c32ff7;
      }

      .st187 {
        fill: #ac43f4;
      }

      .st188 {
        fill: #8664ee;
      }

      .st189 {
        fill: #8069ed;
      }

      .st190 {
        fill: #667fea;
      }

      .st191 {
        fill: #b938f6;
      }

      .st192 {
        fill: #05d4dc;
      }

      .st193 {
        fill: #5f85e9;
      }

      .st194 {
        fill: #4f93e6;
      }

      .st195 {
        fill: #0eccdd;
      }

      .st196 {
        fill: #469be5;
      }

      .st197 {
        fill: #c52df7;
      }

      .st198 {
        fill: #7374ec;
      }

      .st199 {
        fill: #5092e7;
      }

      .st200 {
        fill: #ad42f4;
      }

      .st201 {
        clip-path: url(#clippath);
      }

      .st202 {
        fill: #6b7beb;
      }

      .st203 {
        fill: #d222f9;
      }

      .st204 {
        fill: #04d5dc;
      }

      .st205 {
        fill: #1bc0df;
      }

      .st206 {
        fill: #a34bf3;
      }

      .st207 {
        fill: #3ba5e4;
      }

      .st208 {
        fill: #39a6e3;
      }

      .st209 {
        fill: #6184e9;
      }

      .st210 {
        fill: #7671ec;
      }

      .st211 {
        fill: #9656f1;
      }

      .st212 {
        fill: #8169ee;
      }

      .st213 {
        fill: #6e78eb;
      }

      .st214 {
        fill: #9a53f1;
      }
    </style>
    <clipPath id="clippath">
      <path class="st68" d="M185.77,18.22h-108.97v62.27h108.97c25.75,0,46.7,20.95,46.7,46.7s-20.95,46.7-46.7,46.7h-15.57l-31.13,62.27h46.7c60.09,0,108.97-48.88,108.97-108.97S245.85,18.22,185.77,18.22Z"/>
    </clipPath>
    <clipPath id="clippath-1">
      <polygon class="st68" points="139.07 236.17 76.8 236.17 76.8 80.49 14.53 80.49 14.53 298.44 107.93 298.44 139.07 236.17 139.07 236.17"/>
    </clipPath>
  </defs>
  <g>
    <g class="st201">
      <polygon class="st153" points="294.74 146.33 152.7 18.22 294.74 18.22 294.74 146.33"/>
      <polygon class="st153" points="294.74 148.26 150.56 18.22 152.7 18.22 294.74 146.33 294.74 148.26"/>
      <polygon class="st11" points="294.74 150.19 148.43 18.22 150.56 18.22 294.74 148.26 294.74 150.19"/>
      <polygon class="st117" points="294.74 152.12 146.29 18.22 148.43 18.22 294.74 150.19 294.74 152.12"/>
      <polygon class="st131" points="294.74 154.05 144.15 18.22 146.29 18.22 294.74 152.12 294.74 154.05"/>
      <polygon class="st204" points="294.74 155.98 142.01 18.22 144.15 18.22 294.74 154.05 294.74 155.98"/>
      <polygon class="st192" points="294.74 157.9 139.87 18.22 142.01 18.22 294.74 155.98 294.74 157.9"/>
      <polygon class="st28" points="294.74 159.83 137.74 18.22 139.87 18.22 294.74 157.9 294.74 159.83"/>
      <polygon class="st78" points="294.74 161.76 135.6 18.22 137.74 18.22 294.74 159.83 294.74 161.76"/>
      <polygon class="st0" points="294.74 163.69 133.46 18.22 135.6 18.22 294.74 161.76 294.74 163.69"/>
      <polygon class="st121" points="294.74 165.62 131.32 18.22 133.46 18.22 294.74 163.69 294.74 165.62"/>
      <polygon class="st103" points="294.74 167.55 129.19 18.22 131.32 18.22 294.74 165.62 294.74 167.55"/>
      <polygon class="st58" points="294.74 169.47 127.05 18.22 129.19 18.22 294.74 167.55 294.74 169.47"/>
      <polygon class="st152" points="294.74 171.4 124.91 18.22 127.05 18.22 294.74 169.47 294.74 171.4"/>
      <polygon class="st9" points="294.74 173.33 122.77 18.22 124.91 18.22 294.74 171.4 294.74 173.33"/>
      <polygon class="st195" points="294.74 175.26 120.63 18.22 122.77 18.22 294.74 173.33 294.74 175.26"/>
      <polygon class="st73" points="294.74 177.19 118.5 18.22 120.63 18.22 294.74 175.26 294.74 177.19"/>
      <polygon class="st156" points="294.74 179.12 116.36 18.22 118.5 18.22 294.74 177.19 294.74 179.12"/>
      <polygon class="st143" points="294.74 181.04 114.22 18.22 116.36 18.22 294.74 179.12 294.74 181.04"/>
      <polygon class="st74" points="294.74 182.97 112.08 18.22 114.22 18.22 294.74 181.04 294.74 182.97"/>
      <polygon class="st77" points="294.74 184.9 109.94 18.22 112.08 18.22 294.74 182.97 294.74 184.9"/>
      <polygon class="st86" points="294.74 186.83 107.81 18.22 109.94 18.22 294.74 184.9 294.74 186.83"/>
      <polygon class="st93" points="294.74 188.76 105.67 18.22 107.81 18.22 294.74 186.83 294.74 188.76"/>
      <polygon class="st71" points="294.74 190.69 103.53 18.22 105.67 18.22 294.74 188.76 294.74 190.69"/>
      <polygon class="st160" points="294.74 192.61 101.39 18.22 103.53 18.22 294.74 190.69 294.74 192.61"/>
      <polygon class="st82" points="294.74 192.91 293.93 193.81 99.25 18.22 101.39 18.22 294.74 192.61 294.74 192.91"/>
      <polygon class="st171" points="293.93 193.81 292.97 194.87 97.12 18.22 99.25 18.22 293.93 193.81"/>
      <polygon class="st62" points="292.97 194.87 292.01 195.94 94.98 18.22 97.12 18.22 292.97 194.87"/>
      <polygon class="st205" points="292.01 195.94 291.05 197 92.84 18.22 94.98 18.22 292.01 195.94"/>
      <polygon class="st55" points="291.05 197 290.09 198.06 90.7 18.22 92.84 18.22 291.05 197"/>
      <polygon class="st35" points="290.09 198.06 289.13 199.13 88.56 18.22 90.7 18.22 290.09 198.06"/>
      <polygon class="st4" points="289.13 199.13 288.17 200.19 86.43 18.22 88.56 18.22 289.13 199.13"/>
      <polygon class="st178" points="288.17 200.19 287.21 201.25 84.29 18.22 86.43 18.22 288.17 200.19"/>
      <polygon class="st91" points="287.21 201.25 286.25 202.32 82.15 18.22 84.29 18.22 287.21 201.25"/>
      <polygon class="st110" points="286.25 202.32 285.29 203.38 80.01 18.22 82.15 18.22 286.25 202.32"/>
      <polygon class="st76" points="285.29 203.38 284.33 204.44 77.87 18.22 80.01 18.22 285.29 203.38"/>
      <polygon class="st163" points="284.33 204.44 283.38 205.51 76.8 19.18 76.8 18.22 77.87 18.22 284.33 204.44"/>
      <polygon class="st69" points="283.38 205.51 282.42 206.57 76.8 21.11 76.8 19.18 283.38 205.51"/>
      <polygon class="st185" points="282.42 206.57 281.46 207.63 76.8 23.04 76.8 21.11 282.42 206.57"/>
      <polygon class="st59" points="281.46 207.63 280.5 208.7 76.8 24.96 76.8 23.04 281.46 207.63"/>
      <polygon class="st179" points="280.5 208.7 279.54 209.76 76.8 26.89 76.8 24.96 280.5 208.7"/>
      <polygon class="st42" points="279.54 209.76 278.58 210.82 76.8 28.82 76.8 26.89 279.54 209.76"/>
      <polygon class="st37" points="278.58 210.82 277.62 211.89 76.8 30.75 76.8 28.82 278.58 210.82"/>
      <polygon class="st90" points="277.62 211.89 276.66 212.95 76.8 32.68 76.8 30.75 277.62 211.89"/>
      <polygon class="st104" points="276.66 212.95 275.7 214.01 76.8 34.61 76.8 32.68 276.66 212.95"/>
      <polygon class="st169" points="275.7 214.01 274.74 215.08 76.8 36.53 76.8 34.61 275.7 214.01"/>
      <polygon class="st22" points="274.74 215.08 273.79 216.14 76.8 38.46 76.8 36.53 274.74 215.08"/>
      <polygon class="st137" points="273.79 216.14 272.83 217.2 76.8 40.39 76.8 38.46 273.79 216.14"/>
      <polygon class="st157" points="272.83 217.2 271.87 218.27 76.8 42.32 76.8 40.39 272.83 217.2"/>
      <polygon class="st88" points="271.87 218.27 270.91 219.33 76.8 44.25 76.8 42.32 271.87 218.27"/>
      <polygon class="st127" points="270.91 219.33 269.95 220.39 76.8 46.18 76.8 44.25 270.91 219.33"/>
      <polygon class="st24" points="269.95 220.39 268.99 221.46 76.8 48.1 76.8 46.18 269.95 220.39"/>
      <polygon class="st130" points="268.99 221.46 268.03 222.52 76.8 50.03 76.8 48.1 268.99 221.46"/>
      <polygon class="st134" points="268.03 222.52 267.07 223.58 76.8 51.96 76.8 50.03 268.03 222.52"/>
      <polygon class="st114" points="267.07 223.58 266.11 224.65 76.8 53.89 76.8 51.96 267.07 223.58"/>
      <polygon class="st115" points="266.11 224.65 265.15 225.71 76.8 55.82 76.8 53.89 266.11 224.65"/>
      <polygon class="st122" points="265.15 225.71 264.19 226.77 76.8 57.75 76.8 55.82 265.15 225.71"/>
      <polygon class="st6" points="264.19 226.77 263.24 227.84 76.8 59.67 76.8 57.75 264.19 226.77"/>
      <polygon class="st208" points="263.24 227.84 262.28 228.9 76.8 61.6 76.8 59.67 263.24 227.84"/>
      <polygon class="st63" points="262.28 228.9 261.32 229.96 76.8 63.53 76.8 61.6 262.28 228.9"/>
      <polygon class="st207" points="261.32 229.96 260.36 231.03 76.8 65.46 76.8 63.53 261.32 229.96"/>
      <polygon class="st13" points="260.36 231.03 259.4 232.09 76.8 67.39 76.8 65.46 260.36 231.03"/>
      <polygon class="st89" points="259.4 232.09 258.44 233.15 76.8 69.32 76.8 67.39 259.4 232.09"/>
      <polygon class="st33" points="258.44 233.15 257.48 234.22 76.8 71.24 76.8 69.32 258.44 233.15"/>
      <polygon class="st138" points="257.48 234.22 256.52 235.28 76.8 73.17 76.8 71.24 257.48 234.22"/>
      <polygon class="st181" points="256.52 235.28 255.72 236.17 255.37 236.17 76.8 75.1 76.8 73.17 256.52 235.28"/>
      <polygon class="st67" points="253.23 236.17 76.8 77.03 76.8 75.1 255.37 236.17 253.23 236.17"/>
      <polygon class="st154" points="251.09 236.17 76.8 78.96 76.8 77.03 253.23 236.17 251.09 236.17"/>
      <polygon class="st180" points="248.95 236.17 76.8 80.89 76.8 78.96 251.09 236.17 248.95 236.17"/>
      <polygon class="st165" points="246.82 236.17 76.8 82.81 76.8 80.89 248.95 236.17 246.82 236.17"/>
      <polygon class="st47" points="244.68 236.17 76.8 84.74 76.8 82.81 246.82 236.17 244.68 236.17"/>
      <polygon class="st196" points="242.54 236.17 76.8 86.67 76.8 84.74 244.68 236.17 242.54 236.17"/>
      <polygon class="st51" points="240.4 236.17 76.8 88.6 76.8 86.67 242.54 236.17 240.4 236.17"/>
      <polygon class="st113" points="238.26 236.17 76.8 90.53 76.8 88.6 240.4 236.17 238.26 236.17"/>
      <polygon class="st61" points="236.13 236.17 76.8 92.46 76.8 90.53 238.26 236.17 236.13 236.17"/>
      <polygon class="st32" points="233.99 236.17 76.8 94.38 76.8 92.46 236.13 236.17 233.99 236.17"/>
      <polygon class="st142" points="231.85 236.17 76.8 96.31 76.8 94.38 233.99 236.17 231.85 236.17"/>
      <polygon class="st65" points="229.71 236.17 76.8 98.24 76.8 96.31 231.85 236.17 229.71 236.17"/>
      <polygon class="st80" points="227.57 236.17 76.8 100.17 76.8 98.24 229.71 236.17 227.57 236.17"/>
      <polygon class="st38" points="225.44 236.17 76.8 102.1 76.8 100.17 227.57 236.17 225.44 236.17"/>
      <polygon class="st194" points="223.3 236.17 76.8 104.03 76.8 102.1 225.44 236.17 223.3 236.17"/>
      <polygon class="st199" points="221.16 236.17 76.8 105.96 76.8 104.03 223.3 236.17 221.16 236.17"/>
      <polygon class="st183" points="219.02 236.17 76.8 107.88 76.8 105.96 221.16 236.17 219.02 236.17"/>
      <polygon class="st172" points="216.88 236.17 76.8 109.81 76.8 107.88 219.02 236.17 216.88 236.17"/>
      <polygon class="st40" points="214.75 236.17 76.8 111.74 76.8 109.81 216.88 236.17 214.75 236.17"/>
      <polygon class="st26" points="212.61 236.17 76.8 113.67 76.8 111.74 214.75 236.17 212.61 236.17"/>
      <polygon class="st109" points="210.47 236.17 76.8 115.6 76.8 113.67 212.61 236.17 210.47 236.17"/>
      <polygon class="st129" points="208.33 236.17 76.8 117.53 76.8 115.6 210.47 236.17 208.33 236.17"/>
      <polygon class="st175" points="206.19 236.17 76.8 119.45 76.8 117.53 208.33 236.17 206.19 236.17"/>
      <polygon class="st12" points="204.06 236.17 76.8 121.38 76.8 119.45 206.19 236.17 204.06 236.17"/>
      <polygon class="st20" points="201.92 236.17 76.8 123.31 76.8 121.38 204.06 236.17 201.92 236.17"/>
      <polygon class="st81" points="199.78 236.17 76.8 125.24 76.8 123.31 201.92 236.17 199.78 236.17"/>
      <polygon class="st123" points="197.64 236.17 76.8 127.17 76.8 125.24 199.78 236.17 197.64 236.17"/>
      <polygon class="st146" points="195.5 236.17 76.8 129.1 76.8 127.17 197.64 236.17 195.5 236.17"/>
      <polygon class="st8" points="193.37 236.17 76.8 131.02 76.8 129.1 195.5 236.17 193.37 236.17"/>
      <polygon class="st10" points="191.23 236.17 76.8 132.95 76.8 131.02 193.37 236.17 191.23 236.17"/>
      <polygon class="st193" points="189.09 236.17 76.8 134.88 76.8 132.95 191.23 236.17 189.09 236.17"/>
      <polygon class="st100" points="186.95 236.17 76.8 136.81 76.8 134.88 189.09 236.17 186.95 236.17"/>
      <polygon class="st209" points="184.81 236.17 76.8 138.74 76.8 136.81 186.95 236.17 184.81 236.17"/>
      <polygon class="st1" points="182.68 236.17 76.8 140.67 76.8 138.74 184.81 236.17 182.68 236.17"/>
      <polygon class="st182" points="180.54 236.17 76.8 142.59 76.8 140.67 182.68 236.17 180.54 236.17"/>
      <polygon class="st155" points="178.4 236.17 76.8 144.52 76.8 142.59 180.54 236.17 178.4 236.17"/>
      <polygon class="st107" points="176.26 236.17 76.8 146.45 76.8 144.52 178.4 236.17 176.26 236.17"/>
      <polygon class="st190" points="174.12 236.17 76.8 148.38 76.8 146.45 176.26 236.17 174.12 236.17"/>
      <polygon class="st101" points="171.99 236.17 76.8 150.31 76.8 148.38 174.12 236.17 171.99 236.17"/>
      <polygon class="st98" points="169.85 236.17 76.8 152.24 76.8 150.31 171.99 236.17 169.85 236.17"/>
      <polygon class="st144" points="167.71 236.17 76.8 154.16 76.8 152.24 169.85 236.17 167.71 236.17"/>
      <polygon class="st119" points="165.57 236.17 76.8 156.09 76.8 154.16 167.71 236.17 165.57 236.17"/>
      <polygon class="st202" points="163.43 236.17 76.8 158.02 76.8 156.09 165.57 236.17 163.43 236.17"/>
      <polygon class="st176" points="161.3 236.17 76.8 159.95 76.8 158.02 163.43 236.17 161.3 236.17"/>
      <polygon class="st14" points="159.16 236.17 76.8 161.88 76.8 159.95 161.3 236.17 159.16 236.17"/>
      <polygon class="st213" points="157.02 236.17 76.8 163.81 76.8 161.88 159.16 236.17 157.02 236.17"/>
      <polygon class="st5" points="154.88 236.17 76.8 165.73 76.8 163.81 157.02 236.17 154.88 236.17"/>
      <polygon class="st177" points="152.74 236.17 76.8 167.66 76.8 165.73 154.88 236.17 152.74 236.17"/>
      <polygon class="st87" points="150.61 236.17 76.8 169.59 76.8 167.66 152.74 236.17 150.61 236.17"/>
      <polygon class="st126" points="148.47 236.17 76.8 171.52 76.8 169.59 150.61 236.17 148.47 236.17"/>
      <polygon class="st198" points="146.33 236.17 76.8 173.45 76.8 171.52 148.47 236.17 146.33 236.17"/>
      <polygon class="st147" points="144.19 236.17 76.8 175.38 76.8 173.45 146.33 236.17 144.19 236.17"/>
      <polygon class="st168" points="142.05 236.17 76.8 177.3 76.8 175.38 144.19 236.17 142.05 236.17"/>
      <polygon class="st210" points="139.92 236.17 76.8 179.23 76.8 177.3 142.05 236.17 139.92 236.17"/>
      <polygon class="st145" points="137.78 236.17 76.8 181.16 76.8 179.23 139.92 236.17 137.78 236.17"/>
      <polygon class="st106" points="135.64 236.17 76.8 183.09 76.8 181.16 137.78 236.17 135.64 236.17"/>
      <polygon class="st49" points="133.5 236.17 76.8 185.02 76.8 183.09 135.64 236.17 133.5 236.17"/>
      <polygon class="st158" points="131.36 236.17 76.8 186.95 76.8 185.02 133.5 236.17 131.36 236.17"/>
      <polygon class="st57" points="129.23 236.17 76.8 188.87 76.8 186.95 131.36 236.17 129.23 236.17"/>
      <polygon class="st111" points="127.09 236.17 76.8 190.8 76.8 188.87 129.23 236.17 127.09 236.17"/>
      <polygon class="st174" points="124.95 236.17 76.8 192.73 76.8 190.8 127.09 236.17 124.95 236.17"/>
      <polygon class="st118" points="122.81 236.17 76.8 194.66 76.8 192.73 124.95 236.17 122.81 236.17"/>
      <polygon class="st189" points="120.68 236.17 76.8 196.59 76.8 194.66 122.81 236.17 120.68 236.17"/>
      <polygon class="st212" points="118.54 236.17 76.8 198.52 76.8 196.59 120.68 236.17 118.54 236.17"/>
      <polygon class="st25" points="116.4 236.17 76.8 200.44 76.8 198.52 118.54 236.17 116.4 236.17"/>
      <polygon class="st46" points="114.26 236.17 76.8 202.37 76.8 200.44 116.4 236.17 114.26 236.17"/>
      <polygon class="st132" points="112.12 236.17 76.8 204.3 76.8 202.37 114.26 236.17 112.12 236.17"/>
      <polygon class="st116" points="109.99 236.17 76.8 206.23 76.8 204.3 112.12 236.17 109.99 236.17"/>
      <polygon class="st188" points="107.85 236.17 76.8 208.16 76.8 206.23 109.99 236.17 107.85 236.17"/>
      <polygon class="st50" points="105.71 236.17 76.8 210.09 76.8 208.16 107.85 236.17 105.71 236.17"/>
      <polygon class="st41" points="103.57 236.17 76.8 212.02 76.8 210.09 105.71 236.17 103.57 236.17"/>
      <polygon class="st3" points="101.43 236.17 76.8 213.94 76.8 212.02 103.57 236.17 101.43 236.17"/>
      <polygon class="st92" points="99.3 236.17 76.8 215.87 76.8 213.94 101.43 236.17 99.3 236.17"/>
      <polygon class="st70" points="97.16 236.17 76.8 217.8 76.8 215.87 99.3 236.17 97.16 236.17"/>
      <polygon class="st29" points="95.02 236.17 76.8 219.73 76.8 217.8 97.16 236.17 95.02 236.17"/>
      <polygon class="st96" points="92.88 236.17 76.8 221.66 76.8 219.73 95.02 236.17 92.88 236.17"/>
      <polygon class="st48" points="90.74 236.17 76.8 223.59 76.8 221.66 92.88 236.17 90.74 236.17"/>
      <polygon class="st2" points="88.61 236.17 76.8 225.51 76.8 223.59 90.74 236.17 88.61 236.17"/>
      <polygon class="st139" points="86.47 236.17 76.8 227.44 76.8 225.51 88.61 236.17 86.47 236.17"/>
      <polygon class="st39" points="84.33 236.17 76.8 229.37 76.8 227.44 86.47 236.17 84.33 236.17"/>
      <polygon class="st125" points="82.19 236.17 76.8 231.3 76.8 229.37 84.33 236.17 82.19 236.17"/>
      <polygon class="st56" points="80.05 236.17 76.8 233.23 76.8 231.3 82.19 236.17 80.05 236.17"/>
      <polygon class="st79" points="77.92 236.17 76.8 235.16 76.8 233.23 80.05 236.17 77.92 236.17"/>
      <polygon class="st45" points="76.8 235.16 77.92 236.17 76.8 236.17 76.8 235.16"/>
    </g>
    <g class="st85">
      <polygon class="st59" points="139.07 81.13 138.36 80.49 139.07 80.49 139.07 81.13"/>
      <polygon class="st179" points="139.07 83.06 136.22 80.49 138.36 80.49 139.07 81.13 139.07 83.06"/>
      <polygon class="st42" points="139.07 84.99 134.08 80.49 136.22 80.49 139.07 83.06 139.07 84.99"/>
      <polygon class="st37" points="139.07 86.91 131.95 80.49 134.08 80.49 139.07 84.99 139.07 86.91"/>
      <polygon class="st90" points="139.07 88.84 129.81 80.49 131.95 80.49 139.07 86.91 139.07 88.84"/>
      <polygon class="st104" points="139.07 90.77 127.67 80.49 129.81 80.49 139.07 88.84 139.07 90.77"/>
      <polygon class="st169" points="139.07 92.7 125.53 80.49 127.67 80.49 139.07 90.77 139.07 92.7"/>
      <polygon class="st22" points="139.07 94.63 123.39 80.49 125.53 80.49 139.07 92.7 139.07 94.63"/>
      <polygon class="st137" points="139.07 96.56 121.26 80.49 123.39 80.49 139.07 94.63 139.07 96.56"/>
      <polygon class="st157" points="139.07 98.48 119.12 80.49 121.26 80.49 139.07 96.56 139.07 98.48"/>
      <polygon class="st88" points="139.07 100.41 116.98 80.49 119.12 80.49 139.07 98.48 139.07 100.41"/>
      <polygon class="st127" points="139.07 102.34 114.84 80.49 116.98 80.49 139.07 100.41 139.07 102.34"/>
      <polygon class="st24" points="139.07 104.27 112.7 80.49 114.84 80.49 139.07 102.34 139.07 104.27"/>
      <polygon class="st130" points="139.07 106.2 110.57 80.49 112.7 80.49 139.07 104.27 139.07 106.2"/>
      <polygon class="st134" points="139.07 108.13 108.43 80.49 110.57 80.49 139.07 106.2 139.07 108.13"/>
      <polygon class="st114" points="139.07 110.05 106.29 80.49 108.43 80.49 139.07 108.13 139.07 110.05"/>
      <polygon class="st115" points="139.07 111.98 104.15 80.49 106.29 80.49 139.07 110.05 139.07 111.98"/>
      <polygon class="st122" points="139.07 113.91 102.01 80.49 104.15 80.49 139.07 111.98 139.07 113.91"/>
      <polygon class="st6" points="139.07 115.84 99.88 80.49 102.01 80.49 139.07 113.91 139.07 115.84"/>
      <polygon class="st208" points="139.07 117.77 97.74 80.49 99.88 80.49 139.07 115.84 139.07 117.77"/>
      <polygon class="st63" points="139.07 119.7 95.6 80.49 97.74 80.49 139.07 117.77 139.07 119.7"/>
      <polygon class="st207" points="139.07 121.62 93.46 80.49 95.6 80.49 139.07 119.7 139.07 121.62"/>
      <polygon class="st13" points="139.07 123.55 91.32 80.49 93.46 80.49 139.07 121.62 139.07 123.55"/>
      <polygon class="st89" points="139.07 125.48 89.19 80.49 91.32 80.49 139.07 123.55 139.07 125.48"/>
      <polygon class="st33" points="139.07 127.41 87.05 80.49 89.19 80.49 139.07 125.48 139.07 127.41"/>
      <polygon class="st138" points="139.07 129.34 84.91 80.49 87.05 80.49 139.07 127.41 139.07 129.34"/>
      <polygon class="st181" points="139.07 131.27 82.77 80.49 84.91 80.49 139.07 129.34 139.07 131.27"/>
      <polygon class="st67" points="139.07 133.19 80.63 80.49 82.77 80.49 139.07 131.27 139.07 133.19"/>
      <polygon class="st154" points="139.07 135.12 78.5 80.49 80.63 80.49 139.07 133.19 139.07 135.12"/>
      <polygon class="st180" points="139.07 137.05 76.36 80.49 78.5 80.49 139.07 135.12 139.07 137.05"/>
      <polygon class="st165" points="139.07 138.98 74.22 80.49 76.36 80.49 139.07 137.05 139.07 138.98"/>
      <polygon class="st47" points="139.07 140.91 72.08 80.49 74.22 80.49 139.07 138.98 139.07 140.91"/>
      <polygon class="st196" points="139.07 142.84 69.94 80.49 72.08 80.49 139.07 140.91 139.07 142.84"/>
      <polygon class="st51" points="139.07 144.76 67.81 80.49 69.94 80.49 139.07 142.84 139.07 144.76"/>
      <polygon class="st113" points="139.07 146.69 65.67 80.49 67.81 80.49 139.07 144.76 139.07 146.69"/>
      <polygon class="st61" points="139.07 148.62 63.53 80.49 65.67 80.49 139.07 146.69 139.07 148.62"/>
      <polygon class="st32" points="139.07 150.55 61.39 80.49 63.53 80.49 139.07 148.62 139.07 150.55"/>
      <polygon class="st142" points="139.07 152.48 59.25 80.49 61.39 80.49 139.07 150.55 139.07 152.48"/>
      <polygon class="st65" points="139.07 154.41 57.12 80.49 59.25 80.49 139.07 152.48 139.07 154.41"/>
      <polygon class="st80" points="139.07 156.33 54.98 80.49 57.12 80.49 139.07 154.41 139.07 156.33"/>
      <polygon class="st38" points="139.07 158.26 52.84 80.49 54.98 80.49 139.07 156.33 139.07 158.26"/>
      <polygon class="st194" points="139.07 160.19 50.7 80.49 52.84 80.49 139.07 158.26 139.07 160.19"/>
      <polygon class="st199" points="139.07 162.12 48.57 80.49 50.7 80.49 139.07 160.19 139.07 162.12"/>
      <polygon class="st183" points="139.07 164.05 46.43 80.49 48.57 80.49 139.07 162.12 139.07 164.05"/>
      <polygon class="st172" points="139.07 165.98 44.29 80.49 46.43 80.49 139.07 164.05 139.07 165.98"/>
      <polygon class="st40" points="139.07 167.9 42.15 80.49 44.29 80.49 139.07 165.98 139.07 167.9"/>
      <polygon class="st26" points="139.07 169.83 40.01 80.49 42.15 80.49 139.07 167.9 139.07 169.83"/>
      <polygon class="st109" points="139.07 171.76 37.88 80.49 40.01 80.49 139.07 169.83 139.07 171.76"/>
      <polygon class="st129" points="139.07 173.69 35.74 80.49 37.88 80.49 139.07 171.76 139.07 173.69"/>
      <polygon class="st175" points="139.07 175.62 33.6 80.49 35.74 80.49 139.07 173.69 139.07 175.62"/>
      <polygon class="st12" points="139.07 177.55 31.46 80.49 33.6 80.49 139.07 175.62 139.07 177.55"/>
      <polygon class="st20" points="139.07 179.47 29.32 80.49 31.46 80.49 139.07 177.55 139.07 179.47"/>
      <polygon class="st81" points="139.07 181.4 27.19 80.49 29.32 80.49 139.07 179.47 139.07 181.4"/>
      <polygon class="st123" points="139.07 183.33 25.05 80.49 27.19 80.49 139.07 181.4 139.07 183.33"/>
      <polygon class="st146" points="139.07 185.26 22.91 80.49 25.05 80.49 139.07 183.33 139.07 185.26"/>
      <polygon class="st8" points="139.07 187.19 20.77 80.49 22.91 80.49 139.07 185.26 139.07 187.19"/>
      <polygon class="st10" points="139.07 189.12 18.63 80.49 20.77 80.49 139.07 187.19 139.07 189.12"/>
      <polygon class="st193" points="139.07 191.05 16.5 80.49 18.63 80.49 139.07 189.12 139.07 191.05"/>
      <polygon class="st100" points="139.07 192.97 14.53 80.64 14.53 80.49 16.5 80.49 139.07 191.05 139.07 192.97"/>
      <polygon class="st209" points="139.07 194.9 14.53 82.57 14.53 80.64 139.07 192.97 139.07 194.9"/>
      <polygon class="st1" points="139.07 196.83 14.53 84.5 14.53 82.57 139.07 194.9 139.07 196.83"/>
      <polygon class="st182" points="139.07 198.76 14.53 86.43 14.53 84.5 139.07 196.83 139.07 198.76"/>
      <polygon class="st155" points="139.07 200.69 14.53 88.36 14.53 86.43 139.07 198.76 139.07 200.69"/>
      <polygon class="st107" points="139.07 202.62 14.53 90.29 14.53 88.36 139.07 200.69 139.07 202.62"/>
      <polygon class="st190" points="139.07 204.54 14.53 92.21 14.53 90.29 139.07 202.62 139.07 204.54"/>
      <polygon class="st101" points="139.07 206.47 14.53 94.14 14.53 92.21 139.07 204.54 139.07 206.47"/>
      <polygon class="st98" points="139.07 208.4 14.53 96.07 14.53 94.14 139.07 206.47 139.07 208.4"/>
      <polygon class="st144" points="139.07 210.33 14.53 98 14.53 96.07 139.07 208.4 139.07 210.33"/>
      <polygon class="st119" points="139.07 212.26 14.53 99.93 14.53 98 139.07 210.33 139.07 212.26"/>
      <polygon class="st202" points="139.07 214.19 14.53 101.86 14.53 99.93 139.07 212.26 139.07 214.19"/>
      <polygon class="st176" points="139.07 216.11 14.53 103.78 14.53 101.86 139.07 214.19 139.07 216.11"/>
      <polygon class="st14" points="139.07 218.04 14.53 105.71 14.53 103.78 139.07 216.11 139.07 218.04"/>
      <polygon class="st213" points="139.07 219.97 14.53 107.64 14.53 105.71 139.07 218.04 139.07 219.97"/>
      <polygon class="st5" points="139.07 221.9 14.53 109.57 14.53 107.64 139.07 219.97 139.07 221.9"/>
      <polygon class="st177" points="139.07 223.83 14.53 111.5 14.53 109.57 139.07 221.9 139.07 223.83"/>
      <polygon class="st87" points="139.07 225.76 14.53 113.43 14.53 111.5 139.07 223.83 139.07 225.76"/>
      <polygon class="st126" points="139.07 227.68 14.53 115.35 14.53 113.43 139.07 225.76 139.07 227.68"/>
      <polygon class="st198" points="139.07 229.61 14.53 117.28 14.53 115.35 139.07 227.68 139.07 229.61"/>
      <polygon class="st147" points="139.07 231.54 14.53 119.21 14.53 117.28 139.07 229.61 139.07 231.54"/>
      <polygon class="st168" points="139.07 233.47 14.53 121.14 14.53 119.21 139.07 231.54 139.07 233.47"/>
      <polygon class="st210" points="139.07 235.4 14.53 123.07 14.53 121.14 139.07 233.47 139.07 235.4"/>
      <polygon class="st145" points="139.07 237.33 14.53 125 14.53 123.07 139.07 235.4 139.07 237.33"/>
      <polygon class="st106" points="139.07 239.25 14.53 126.93 14.53 125 139.07 237.33 139.07 239.25"/>
      <polygon class="st49" points="139.07 241.18 14.53 128.85 14.53 126.93 139.07 239.25 139.07 241.18"/>
      <polygon class="st158" points="139.07 243.11 14.53 130.78 14.53 128.85 139.07 241.18 139.07 243.11"/>
      <polygon class="st57" points="139.07 245.04 14.53 132.71 14.53 130.78 139.07 243.11 139.07 245.04"/>
      <polygon class="st111" points="139.07 246.97 14.53 134.64 14.53 132.71 139.07 245.04 139.07 246.97"/>
      <polygon class="st174" points="139.07 248.9 14.53 136.57 14.53 134.64 139.07 246.97 139.07 248.9"/>
      <polygon class="st118" points="139.07 250.82 14.53 138.5 14.53 136.57 139.07 248.9 139.07 250.82"/>
      <polygon class="st189" points="139.07 252.75 14.53 140.42 14.53 138.5 139.07 250.82 139.07 252.75"/>
      <polygon class="st212" points="139.07 254.68 14.53 142.35 14.53 140.42 139.07 252.75 139.07 254.68"/>
      <polygon class="st25" points="139.07 256.61 14.53 144.28 14.53 142.35 139.07 254.68 139.07 256.61"/>
      <polygon class="st46" points="139.07 258.54 14.53 146.21 14.53 144.28 139.07 256.61 139.07 258.54"/>
      <polygon class="st132" points="139.07 260.47 14.53 148.14 14.53 146.21 139.07 258.54 139.07 260.47"/>
      <polygon class="st116" points="139.07 262.39 14.53 150.07 14.53 148.14 139.07 260.47 139.07 262.39"/>
      <polygon class="st188" points="139.07 264.32 14.53 151.99 14.53 150.07 139.07 262.39 139.07 264.32"/>
      <polygon class="st50" points="139.07 266.25 14.53 153.92 14.53 151.99 139.07 264.32 139.07 266.25"/>
      <polygon class="st41" points="139.07 268.18 14.53 155.85 14.53 153.92 139.07 266.25 139.07 268.18"/>
      <polygon class="st3" points="139.07 269.54 138.78 269.85 14.53 157.78 14.53 155.85 139.07 268.18 139.07 269.54"/>
      <polygon class="st92" points="138.78 269.85 137.83 270.92 14.53 159.71 14.53 157.78 138.78 269.85"/>
      <polygon class="st70" points="137.83 270.92 136.87 271.98 14.53 161.64 14.53 159.71 137.83 270.92"/>
      <polygon class="st29" points="136.87 271.98 135.91 273.04 14.53 163.56 14.53 161.64 136.87 271.98"/>
      <polygon class="st96" points="135.91 273.04 134.95 274.11 14.53 165.49 14.53 163.56 135.91 273.04"/>
      <polygon class="st48" points="134.95 274.11 133.99 275.17 14.53 167.42 14.53 165.49 134.95 274.11"/>
      <polygon class="st2" points="133.99 275.17 133.03 276.23 14.53 169.35 14.53 167.42 133.99 275.17"/>
      <polygon class="st139" points="133.03 276.23 132.07 277.3 14.53 171.28 14.53 169.35 133.03 276.23"/>
      <polygon class="st39" points="132.07 277.3 131.11 278.36 14.53 173.21 14.53 171.28 132.07 277.3"/>
      <polygon class="st125" points="131.11 278.36 130.15 279.42 14.53 175.13 14.53 173.21 131.11 278.36"/>
      <polygon class="st56" points="130.15 279.42 129.19 280.49 14.53 177.06 14.53 175.13 130.15 279.42"/>
      <polygon class="st79" points="129.19 280.49 128.23 281.55 14.53 178.99 14.53 177.06 129.19 280.49"/>
      <polygon class="st45" points="128.23 281.55 127.28 282.61 14.53 180.92 14.53 178.99 128.23 281.55"/>
      <polygon class="st211" points="127.28 282.61 126.32 283.68 14.53 182.85 14.53 180.92 127.28 282.61"/>
      <polygon class="st141" points="126.32 283.68 125.36 284.74 14.53 184.78 14.53 182.85 126.32 283.68"/>
      <polygon class="st94" points="125.36 284.74 124.4 285.8 14.53 186.7 14.53 184.78 125.36 284.74"/>
      <polygon class="st30" points="124.4 285.8 123.44 286.87 14.53 188.63 14.53 186.7 124.4 285.8"/>
      <polygon class="st214" points="123.44 286.87 122.48 287.93 14.53 190.56 14.53 188.63 123.44 286.87"/>
      <polygon class="st120" points="122.48 287.93 121.52 288.99 14.53 192.49 14.53 190.56 122.48 287.93"/>
      <polygon class="st21" points="121.52 288.99 120.56 290.06 14.53 194.42 14.53 192.49 121.52 288.99"/>
      <polygon class="st18" points="120.56 290.06 119.6 291.12 14.53 196.35 14.53 194.42 120.56 290.06"/>
      <polygon class="st54" points="119.6 291.12 118.64 292.18 14.53 198.27 14.53 196.35 119.6 291.12"/>
      <polygon class="st19" points="118.64 292.18 117.68 293.25 14.53 200.2 14.53 198.27 118.64 292.18"/>
      <polygon class="st64" points="117.68 293.25 116.73 294.31 14.53 202.13 14.53 200.2 117.68 293.25"/>
      <polygon class="st43" points="116.73 294.31 115.77 295.37 14.53 204.06 14.53 202.13 116.73 294.31"/>
      <polygon class="st99" points="115.77 295.37 114.81 296.44 14.53 205.99 14.53 204.06 115.77 295.37"/>
      <polygon class="st206" points="114.81 296.44 113.85 297.5 14.53 207.92 14.53 205.99 114.81 296.44"/>
      <polygon class="st133" points="113.85 297.5 113.01 298.44 112.75 298.44 14.53 209.84 14.53 207.92 113.85 297.5"/>
      <polygon class="st166" points="110.61 298.44 14.53 211.77 14.53 209.84 112.75 298.44 110.61 298.44"/>
      <polygon class="st44" points="108.47 298.44 14.53 213.7 14.53 211.77 110.61 298.44 108.47 298.44"/>
      <polygon class="st162" points="106.33 298.44 14.53 215.63 14.53 213.7 108.47 298.44 106.33 298.44"/>
      <polygon class="st53" points="104.19 298.44 14.53 217.56 14.53 215.63 106.33 298.44 104.19 298.44"/>
      <polygon class="st173" points="102.06 298.44 14.53 219.49 14.53 217.56 104.19 298.44 102.06 298.44"/>
      <polygon class="st128" points="99.92 298.44 14.53 221.41 14.53 219.49 102.06 298.44 99.92 298.44"/>
      <polygon class="st167" points="97.78 298.44 14.53 223.34 14.53 221.41 99.92 298.44 97.78 298.44"/>
      <polygon class="st187" points="95.64 298.44 14.53 225.27 14.53 223.34 97.78 298.44 95.64 298.44"/>
      <polygon class="st200" points="93.5 298.44 14.53 227.2 14.53 225.27 95.64 298.44 93.5 298.44"/>
      <polygon class="st31" points="91.37 298.44 14.53 229.13 14.53 227.2 93.5 298.44 91.37 298.44"/>
      <polygon class="st95" points="89.23 298.44 14.53 231.06 14.53 229.13 91.37 298.44 89.23 298.44"/>
      <polygon class="st135" points="87.09 298.44 14.53 232.99 14.53 231.06 89.23 298.44 87.09 298.44"/>
      <polygon class="st34" points="84.95 298.44 14.53 234.91 14.53 232.99 87.09 298.44 84.95 298.44"/>
      <polygon class="st60" points="82.81 298.44 14.53 236.84 14.53 234.91 84.95 298.44 82.81 298.44"/>
      <polygon class="st149" points="80.68 298.44 14.53 238.77 14.53 236.84 82.81 298.44 80.68 298.44"/>
      <polygon class="st108" points="78.54 298.44 14.53 240.7 14.53 238.77 80.68 298.44 78.54 298.44"/>
      <polygon class="st66" points="76.4 298.44 14.53 242.63 14.53 240.7 78.54 298.44 76.4 298.44"/>
      <polygon class="st148" points="74.26 298.44 14.53 244.56 14.53 242.63 76.4 298.44 74.26 298.44"/>
      <polygon class="st161" points="72.12 298.44 14.53 246.48 14.53 244.56 74.26 298.44 72.12 298.44"/>
      <polygon class="st17" points="69.99 298.44 14.53 248.41 14.53 246.48 72.12 298.44 69.99 298.44"/>
      <polygon class="st191" points="67.85 298.44 14.53 250.34 14.53 248.41 69.99 298.44 67.85 298.44"/>
      <polygon class="st164" points="65.71 298.44 14.53 252.27 14.53 250.34 67.85 298.44 65.71 298.44"/>
      <polygon class="st83" points="63.57 298.44 14.53 254.2 14.53 252.27 65.71 298.44 63.57 298.44"/>
      <polygon class="st151" points="61.43 298.44 14.53 256.13 14.53 254.2 63.57 298.44 61.43 298.44"/>
      <polygon class="st52" points="59.3 298.44 14.53 258.05 14.53 256.13 61.43 298.44 59.3 298.44"/>
      <polygon class="st16" points="57.16 298.44 14.53 259.98 14.53 258.05 59.3 298.44 57.16 298.44"/>
      <polygon class="st136" points="55.02 298.44 14.53 261.91 14.53 259.98 57.16 298.44 55.02 298.44"/>
      <polygon class="st124" points="52.88 298.44 14.53 263.84 14.53 261.91 55.02 298.44 52.88 298.44"/>
      <polygon class="st170" points="50.74 298.44 14.53 265.77 14.53 263.84 52.88 298.44 50.74 298.44"/>
      <polygon class="st102" points="48.61 298.44 14.53 267.7 14.53 265.77 50.74 298.44 48.61 298.44"/>
      <polygon class="st186" points="46.47 298.44 14.53 269.62 14.53 267.7 48.61 298.44 46.47 298.44"/>
      <polygon class="st15" points="44.33 298.44 14.53 271.55 14.53 269.62 46.47 298.44 44.33 298.44"/>
      <polygon class="st197" points="42.19 298.44 14.53 273.48 14.53 271.55 44.33 298.44 42.19 298.44"/>
      <polygon class="st27" points="40.06 298.44 14.53 275.41 14.53 273.48 42.19 298.44 40.06 298.44"/>
      <polygon class="st75" points="37.92 298.44 14.53 277.34 14.53 275.41 40.06 298.44 37.92 298.44"/>
      <polygon class="st112" points="35.78 298.44 14.53 279.27 14.53 277.34 37.92 298.44 35.78 298.44"/>
      <polygon class="st7" points="33.64 298.44 14.53 281.19 14.53 279.27 35.78 298.44 33.64 298.44"/>
      <polygon class="st105" points="31.5 298.44 14.53 283.12 14.53 281.19 33.64 298.44 31.5 298.44"/>
      <polygon class="st23" points="29.37 298.44 14.53 285.05 14.53 283.12 31.5 298.44 29.37 298.44"/>
      <polygon class="st150" points="27.23 298.44 14.53 286.98 14.53 285.05 29.37 298.44 27.23 298.44"/>
      <polygon class="st140" points="25.09 298.44 14.53 288.91 14.53 286.98 27.23 298.44 25.09 298.44"/>
      <polygon class="st72" points="22.95 298.44 14.53 290.84 14.53 288.91 25.09 298.44 22.95 298.44"/>
      <polygon class="st36" points="20.81 298.44 14.53 292.76 14.53 290.84 22.95 298.44 20.81 298.44"/>
      <polygon class="st159" points="18.68 298.44 14.53 294.69 14.53 292.76 20.81 298.44 18.68 298.44"/>
      <polygon class="st84" points="16.54 298.44 14.53 296.62 14.53 294.69 18.68 298.44 16.54 298.44"/>
      <polygon class="st203" points="14.53 296.62 16.54 298.44 14.53 298.44 14.53 296.62"/>
    </g>
  </g>
  <g>
    <circle class="st97" cx="801.72" cy="80.49" r="17.92"/>
    <path class="st184" d="M407.69,85.24c5.49,0,10.51.94,15.05,2.67,4.55,1.73,8.47,4.24,11.76,7.37,3.29,3.14,5.8,6.9,7.69,11.29,1.88,4.39,2.82,9.25,2.82,14.43s-.94,9.88-2.82,14.27c-1.89,4.39-4.39,8.15-7.69,11.29-3.29,3.14-7.21,5.65-11.76,7.37-4.55,1.72-9.57,2.67-14.9,2.67h-32.15v38.89h-16.94v-110.25h48.93ZM421.33,136.05c4.08-3.76,6.12-8.78,6.12-15.05,0-3.14-.47-5.96-1.57-8.62-1.1-2.51-2.67-4.71-4.55-6.59-2.04-1.88-4.39-3.29-7.06-4.39-2.67-.94-5.65-1.41-8.94-1.41h-29.64v41.87h29.64c6.58,0,11.92-1.88,15.99-5.8Z"/>
    <path class="st184" d="M499.71,120.22c-3.61,0-7.06.63-10.19,1.88-3.14,1.41-5.8,3.14-8,5.49-2.35,2.35-4.08,5.17-5.33,8.47-1.41,3.29-2.04,6.74-2.04,10.51v48.93h-16.47v-50.65c0-5.8,1.1-10.98,3.14-15.84s5.02-8.94,8.78-12.55c3.61-3.45,8.15-6.12,13.33-8.15,5.17-1.88,10.66-2.82,16.78-2.82h9.88v14.74h-9.88Z"/>
    <path class="st184" d="M518.98,132.76c2.35-5.49,5.49-10.35,9.72-14.43,4.08-4.08,8.94-7.21,14.74-9.57,5.65-2.2,11.92-3.3,18.66-3.3s12.86,1.1,18.51,3.3c5.65,2.35,10.5,5.49,14.74,9.57,4.08,4.08,7.22,8.94,9.57,14.43,2.35,5.65,3.45,11.76,3.45,18.35s-1.1,12.86-3.45,18.35c-2.35,5.65-5.49,10.51-9.57,14.59-4.08,4.08-8.94,7.21-14.58,9.57-5.65,2.35-11.92,3.45-18.66,3.45s-13.01-1.1-18.66-3.45c-5.8-2.19-10.66-5.33-14.74-9.41-4.24-4.08-7.37-8.94-9.72-14.58-2.35-5.65-3.45-11.76-3.45-18.51s1.1-12.7,3.45-18.35ZM534.51,163.66c1.41,3.92,3.61,7.22,6.27,9.88,2.67,2.82,5.8,5.02,9.41,6.59,3.61,1.57,7.53,2.35,11.92,2.35s8.31-.78,11.92-2.35c3.61-1.57,6.59-3.76,9.25-6.59,2.67-2.67,4.71-5.96,6.12-9.88,1.41-3.92,2.19-8,2.19-12.55s-.78-8.62-2.19-12.39c-1.41-3.76-3.45-7.06-6.12-9.88-2.67-2.67-5.65-4.86-9.25-6.43-3.6-1.41-7.68-2.2-11.92-2.2s-8.31.78-11.92,2.2c-3.6,1.57-6.74,3.76-9.41,6.43-2.67,2.82-4.86,6.12-6.27,9.88-1.41,3.76-2.19,7.84-2.19,12.39s.78,8.78,2.19,12.55Z"/>
    <path class="st184" d="M758.73,148.92c0-4.24-.63-8.15-1.88-11.76-1.41-3.61-3.14-6.59-5.49-9.1-2.35-2.51-5.02-4.39-8.15-5.8-3.29-1.41-6.74-2.04-10.51-2.04s-7.21.63-10.35,2.04c-3.3,1.41-5.96,3.45-8.31,5.96-2.35,2.67-4.23,5.65-5.49,9.09-1.41,3.61-2.04,7.37-2.04,11.61v46.58h-15.52v-46.58c0-4.24-.63-8-1.88-11.61-1.41-3.45-3.14-6.43-5.49-9.09-2.35-2.51-5.02-4.55-8.31-5.96-3.29-1.41-6.74-2.04-10.51-2.04s-7.22.63-10.35,2.04c-3.3,1.41-5.96,3.29-8.31,5.8-2.35,2.51-4.23,5.49-5.49,9.1-1.41,3.61-2.04,7.53-2.04,11.76v46.58h-16.47v-47.67c0-6.12,1.1-11.92,3.14-17.09,2.04-5.18,4.86-9.57,8.63-13.33,3.6-3.76,8-6.74,13.17-8.78,5.02-2.04,10.5-3.14,16.47-3.14,7.84,0,14.9,1.89,21.02,5.65,6.11,3.76,10.82,8.78,14.11,15.21,3.14-6.43,7.84-11.45,13.96-15.21s13.33-5.65,21.33-5.65c5.96,0,11.45,1.1,16.47,3.14,5.02,2.04,9.41,5.02,13.18,8.78,3.6,3.76,6.58,8.15,8.62,13.33,2.04,5.17,2.98,10.98,2.98,17.09v47.67h-16.47v-46.58Z"/>
    <path class="st184" d="M809.8,195.49h-16.15v-88.45h16.15v88.45Z"/>
    <path class="st184" d="M899.65,148.92c0-4.24-.63-8.15-2.04-11.76-1.41-3.61-3.29-6.59-5.64-9.1-2.35-2.51-5.33-4.39-8.63-5.8-3.45-1.41-7.22-2.04-11.14-2.04s-7.68.63-10.98,2.04c-3.29,1.41-6.27,3.29-8.62,5.8-2.51,2.51-4.39,5.49-5.8,9.1-1.41,3.61-2.04,7.53-2.04,11.76v46.58h-16.47v-47.67c0-6.12,1.1-11.92,3.29-17.09,2.2-5.18,5.33-9.57,9.25-13.33s8.47-6.74,13.8-8.78c5.33-2.04,11.14-3.14,17.56-3.14s12.23,1.1,17.56,3.14c5.33,2.04,10.04,5.02,13.96,8.78,3.92,3.76,6.9,8.15,9.1,13.33,2.19,5.17,3.29,10.98,3.29,17.09v47.67h-16.47v-46.58Z"/>
    <path class="st184" d="M1011.9,178.87c-2.82,3.76-6.12,7.06-9.88,9.72s-8,4.86-12.55,6.27c-4.7,1.41-9.57,2.19-14.74,2.19-6.43,0-12.39-1.1-17.88-3.45s-10.35-5.49-14.27-9.57c-3.92-4.08-7.06-8.94-9.25-14.59-2.35-5.49-3.45-11.6-3.45-18.35s1.1-12.7,3.45-18.35c2.19-5.49,5.33-10.35,9.25-14.43,3.92-4.08,8.78-7.21,14.27-9.57,5.49-2.2,11.45-3.3,17.88-3.3s13.01,1.25,18.5,3.61c5.49,2.51,10.35,5.96,14.27,10.19,3.92,4.39,7.06,9.57,9.25,15.53,2.04,6.12,3.14,12.71,3.14,19.76h-73.08c.32,4.24,1.25,8.15,2.67,11.76,1.41,3.6,3.45,6.58,5.96,9.09,2.51,2.51,5.49,4.39,8.94,5.8,3.29,1.41,7.06,2.2,10.98,2.2,5.96,0,11.29-1.57,16.15-4.71,4.86-2.98,8.31-7.06,10.35-12.23h15.99c-1.25,4.55-3.29,8.63-5.96,12.39ZM1000.45,134.02c-1.72-3.14-3.76-5.8-6.11-8.15-2.51-2.19-5.33-3.92-8.63-5.17-3.29-1.1-6.74-1.73-10.35-1.73s-7.21.63-10.5,1.88c-3.3,1.25-6.12,2.98-8.47,5.17-2.51,2.35-4.55,5.02-6.12,8.15-1.57,3.3-2.67,6.74-3.13,10.51h56.46c-.47-3.92-1.57-7.37-3.14-10.66Z"/>
    <path class="st184" d="M1105.18,148.92c0-4.24-.63-8.15-2.04-11.76-1.41-3.61-3.29-6.59-5.64-9.1-2.35-2.51-5.33-4.39-8.63-5.8-3.45-1.41-7.22-2.04-11.14-2.04s-7.68.63-10.98,2.04c-3.29,1.41-6.27,3.29-8.62,5.8-2.51,2.51-4.39,5.49-5.8,9.1-1.41,3.61-2.04,7.53-2.04,11.76v46.58h-16.47v-47.67c0-6.12,1.1-11.92,3.29-17.09,2.2-5.18,5.33-9.57,9.25-13.33,3.92-3.76,8.47-6.74,13.8-8.78,5.33-2.04,11.14-3.14,17.56-3.14s12.23,1.1,17.56,3.14c5.33,2.04,10.04,5.02,13.96,8.78s6.9,8.15,9.1,13.33c2.19,5.17,3.29,10.98,3.29,17.09v47.67h-16.47v-46.58Z"/>
    <path class="st184" d="M1163.79,193.14c-5.18-2.04-9.72-4.7-13.49-8.31-3.76-3.61-6.74-7.84-8.78-12.7-2.19-4.86-3.29-10.2-3.29-16v-70.1h16.47v21.01h31.36v13.8h-31.36v33.56c0,3.92.63,7.37,2.04,10.67,1.25,3.29,3.13,6.27,5.49,8.62,2.35,2.35,5.02,4.24,8.31,5.65,3.13,1.41,6.58,2.04,10.35,2.04h6.9v14.74h-6.9c-6.12,0-11.92-.94-17.09-2.98Z"/>
  </g>
  <g>
    <path class="st97" d="M887.24,242.68v20.85h22.73v6.71h-22.73v21.48h25.42v6.71h-33.56v-62.47h33.56v6.71h-25.42Z"/>
    <path class="st97" d="M950.59,298.43l-11.63-18.26-11.19,18.26h-8.5l15.84-24.34-15.84-24.7h9.22l11.63,18.17,11.1-18.17h8.5l-15.75,24.25,15.84,24.79h-9.22Z"/>
    <path class="st97" d="M983.21,251.41c3.19-1.88,6.91-2.82,11.14-2.82s8.31,1.04,11.86,3.13c3.55,2.09,6.34,5.03,8.37,8.82,2.03,3.79,3.04,8.19,3.04,13.2s-1.02,9.37-3.04,13.25c-2.03,3.88-4.82,6.89-8.37,9.04-3.55,2.15-7.5,3.22-11.86,3.22s-7.86-.94-11.05-2.82c-3.19-1.88-5.62-4.22-7.29-7.03v32.31h-8.14v-72.31h8.14v9.04c1.61-2.8,4.01-5.15,7.2-7.03ZM1007.07,264.07c-1.49-2.74-3.51-4.83-6.04-6.27-2.54-1.43-5.33-2.15-8.37-2.15s-5.74.73-8.28,2.19c-2.54,1.46-4.56,3.58-6.08,6.36-1.52,2.77-2.28,5.98-2.28,9.62s.76,6.94,2.28,9.71c1.52,2.77,3.55,4.89,6.08,6.35,2.54,1.46,5.29,2.19,8.28,2.19s5.83-.73,8.37-2.19c2.54-1.46,4.55-3.58,6.04-6.35,1.49-2.77,2.24-6.04,2.24-9.8s-.75-6.92-2.24-9.66Z"/>
    <path class="st97" d="M1072.84,276.96h-39.2c.3,4.83,1.95,8.61,4.97,11.32,3.01,2.72,6.67,4.07,10.96,4.07,3.52,0,6.46-.82,8.81-2.46,2.36-1.64,4.01-3.83,4.97-6.58h8.77c-1.31,4.71-3.94,8.55-7.88,11.5-3.94,2.95-8.83,4.43-14.68,4.43-4.65,0-8.82-1.04-12.48-3.13-3.67-2.09-6.55-5.06-8.64-8.91-2.09-3.85-3.13-8.31-3.13-13.38s1.01-9.51,3.04-13.33c2.03-3.82,4.88-6.76,8.55-8.81,3.67-2.06,7.89-3.09,12.66-3.09s8.77,1.01,12.35,3.04c3.58,2.03,6.34,4.82,8.28,8.37,1.94,3.55,2.91,7.56,2.91,12.04,0,1.55-.09,3.19-.27,4.92ZM1062.64,262.32c-1.37-2.24-3.24-3.94-5.59-5.1-2.36-1.16-4.97-1.74-7.83-1.74-4.12,0-7.62,1.31-10.52,3.94s-4.55,6.26-4.97,10.92h30.96c0-3.1-.69-5.77-2.06-8.01Z"/>
    <path class="st97" d="M1098.12,250.82c2.66-1.55,5.89-2.33,9.71-2.33v8.41h-2.15c-9.13,0-13.69,4.95-13.69,14.85v26.67h-8.14v-49.04h8.14v7.97c1.43-2.8,3.47-4.98,6.13-6.53Z"/>
    <path class="st97" d="M1127.16,256.1v28.91c0,2.39.51,4.07,1.52,5.06,1.01.98,2.77,1.48,5.28,1.48h6v6.89h-7.34c-4.54,0-7.94-1.04-10.2-3.13s-3.4-5.52-3.4-10.29v-28.91h-6.35v-6.71h6.35v-12.35h8.14v12.35h12.8v6.71h-12.8Z"/>
    <path class="st97" d="M1157.05,297.32c-2.98-1.28-5.34-3.07-7.07-5.37-1.73-2.3-2.69-4.94-2.86-7.92h8.41c.24,2.45,1.39,4.45,3.45,5.99,2.06,1.55,4.76,2.33,8.1,2.33,3.1,0,5.55-.68,7.34-2.06,1.79-1.37,2.69-3.1,2.69-5.19s-.96-3.74-2.86-4.79c-1.91-1.04-4.86-2.07-8.86-3.09-3.64-.95-6.61-1.92-8.9-2.91-2.3-.98-4.27-2.45-5.91-4.39-1.64-1.94-2.46-4.49-2.46-7.65,0-2.51.75-4.8,2.24-6.89,1.49-2.09,3.61-3.74,6.35-4.97s5.88-1.83,9.4-1.83c5.43,0,9.81,1.37,13.16,4.12,3.34,2.75,5.13,6.5,5.37,11.28h-8.14c-.18-2.56-1.21-4.62-3.09-6.18-1.88-1.55-4.4-2.33-7.56-2.33-2.92,0-5.25.63-6.98,1.88-1.73,1.25-2.6,2.89-2.6,4.92,0,1.61.52,2.94,1.57,3.98,1.04,1.05,2.36,1.88,3.94,2.51,1.58.63,3.77,1.33,6.58,2.1,3.52.95,6.38,1.9,8.59,2.82,2.21.93,4.1,2.31,5.68,4.16,1.58,1.85,2.4,4.27,2.46,7.25,0,2.68-.75,5.1-2.24,7.25-1.49,2.15-3.6,3.83-6.31,5.06s-5.83,1.83-9.35,1.83c-3.76,0-7.13-.64-10.11-1.92Z"/>
  </g>
</svg>